<?xml version="1.0" encoding="UTF-8" standalone="no"?>
<!DOCTYPE svg PUBLIC "-//W3C//DTD SVG 1.1//EN" "http://www.w3.org/Graphics/SVG/1.1/DTD/svg11.dtd">
<svg width="100%" height="100%" viewBox="0 0 100 114" version="1.1" xmlns="http://www.w3.org/2000/svg" xmlns:xlink="http://www.w3.org/1999/xlink" xml:space="preserve" xmlns:serif="http://www.serif.com/" style="fill-rule:evenodd;clip-rule:evenodd;stroke-linejoin:round;stroke-miterlimit:2;">
    <g transform="matrix(0.223214,0,0,0.222656,0,0)">
        <path d="M400,480L48,480C21.5,480 0,458.5 0,432L0,80C0,53.5 21.5,32 48,32L400,32C426.5,32 448,53.5 448,80L448,432C448,458.5 426.5,480 400,480ZM238.1,177.9L102.4,313.6L96.1,370.7C95.3,378.3 101.7,384.8 109.4,384L166.5,377.7L302.2,242C304.5,239.7 304.5,235.9 302.2,233.5L246.7,178C244.2,175.6 240.4,175.6 238.1,177.9ZM345,165.1L314.9,135C305.5,125.6 290.3,125.6 281,135L257.9,158.1C255.6,160.4 255.6,164.2 257.9,166.6L313.4,222.1C315.7,224.4 319.5,224.4 321.9,222.1L345,199C354.3,189.7 354.3,174.5 345,165.1Z" style="fill:rgb(245,105,28);fill-rule:nonzero;"/>
    </g>
</svg>
