<?xml version="1.0" encoding="UTF-8" standalone="no"?>
<!DOCTYPE svg PUBLIC "-//W3C//DTD SVG 1.1//EN" "http://www.w3.org/Graphics/SVG/1.1/DTD/svg11.dtd">
<svg width="100%" height="100%" viewBox="0 0 100 83" version="1.1" xmlns="http://www.w3.org/2000/svg" xmlns:xlink="http://www.w3.org/1999/xlink" xml:space="preserve" xmlns:serif="http://www.serif.com/" style="fill-rule:evenodd;clip-rule:evenodd;stroke-linejoin:round;stroke-miterlimit:2;">
    <g transform="matrix(0.162338,0,0,0.162109,0,0)">
        <path d="M602,118.6L537.1,15C531.3,5.7 521,0 510,0L106,0C95,0 84.7,5.7 78.9,15L14,118.6C-19.5,172.1 10.2,246.5 72.8,255C77.3,255.6 81.9,255.9 86.5,255.9C116.1,255.9 142.3,242.9 160.3,222.8C178.3,242.9 204.6,255.9 234.1,255.9C263.7,255.9 289.9,242.9 307.9,222.8C325.9,242.9 352.2,255.9 381.7,255.9C411.3,255.9 437.5,242.9 455.5,222.8C473.6,242.9 499.8,255.9 529.3,255.9C534,255.9 538.5,255.6 543,255C605.8,246.6 635.6,172.2 602,118.6ZM529.5,288C519.5,288 509.6,286.5 500,284.2L500,384L116,384L116,284.2C106.4,286.4 96.5,288 86.5,288C80.5,288 74.4,287.6 68.5,286.8C62.9,286 57.4,284.7 52.1,283.2L52.1,480C52.1,497.7 66.4,512 84.1,512L532.1,512C549.8,512 564.1,497.7 564.1,480L564.1,283.2C558.7,284.8 553.3,286.1 547.7,286.8C541.6,287.6 535.6,288 529.5,288Z" style="fill:rgb(245,105,28);fill-rule:nonzero;"/>
    </g>
</svg>
