<svg width="150" height="150" viewBox="0 0 150 150" fill="none" xmlns="http://www.w3.org/2000/svg">
<path d="M75 0C33.5775 0 0 33.5775 0 75C0 116.423 33.5775 150 75 150C116.423 150 150 116.423 150 75C150 33.5775 116.423 0 75 0ZM75 138.75C66.6277 138.75 58.3376 137.1 50.6028 133.896C42.868 130.691 35.8401 125.995 29.9204 120.074C24.0007 114.154 19.305 107.125 16.1015 99.3903C12.8981 91.6551 11.2495 83.3648 11.25 74.9925C11.2505 66.6202 12.9 58.3301 16.1044 50.5953C19.3088 42.8605 24.0053 35.8326 29.9257 29.9129C35.8461 23.9932 42.8746 19.2975 50.6097 16.094C58.3449 12.8906 66.6352 11.242 75.0075 11.2425C91.9161 11.2435 108.132 17.9613 120.087 29.9182C132.043 41.875 138.758 58.0915 138.758 75C138.757 91.9085 132.039 108.124 120.082 120.08C108.125 132.035 91.9085 138.751 75 138.75ZM75 78.75C52.215 78.75 33.75 91.71 33.75 105C33.75 118.29 52.215 131.25 75 131.25C97.785 131.25 116.25 118.29 116.25 105C116.25 91.71 97.785 78.75 75 78.75ZM75 75C80.9674 75 86.6903 72.6295 90.9099 68.4099C95.1295 64.1903 97.5 58.4674 97.5 52.5C97.5 46.5326 95.1295 40.8097 90.9099 36.5901C86.6903 32.3705 80.9674 30 75 30C69.0326 30 63.3097 32.3705 59.0901 36.5901C54.8705 40.8097 52.5 46.5326 52.5 52.5C52.5 58.4674 54.8705 64.1903 59.0901 68.4099C63.3097 72.6295 69.0326 75 75 75Z" fill="#F5691C"/>
</svg>
