<?xml version="1.0" encoding="utf-8"?>
<!-- Generator: Adobe Illustrator 25.2.3, SVG Export Plug-In . SVG Version: 6.00 Build 0)  -->
<svg version="1.1" id="Layer_1" xmlns="http://www.w3.org/2000/svg" xmlns:xlink="http://www.w3.org/1999/xlink" x="0px" y="0px"
	 viewBox="0 0 87.3 34.1" style="enable-background:new 0 0 87.3 34.1;" xml:space="preserve">
<style type="text/css">
	.st0{fill:#A0AEC0;}
</style>
<g>
	<path class="st0" d="M24.4,12.3h4.2c1.6,0,2.6,1,2.6,2.4c0,1.2-0.8,2-1.6,2.2c1,0.2,1.8,1.2,1.8,2.3c0,1.5-1,2.5-2.7,2.5h-4.3
		C24.4,21.7,24.4,12.3,24.4,12.3z M28.4,16.3c1.1,0,1.6-0.6,1.6-1.5c0-0.8-0.6-1.5-1.6-1.5h-2.8v3H28.4z M28.4,20.6
		c1.1,0,1.7-0.6,1.7-1.6c0-0.9-0.6-1.6-1.7-1.6h-2.9v3.2H28.4z"/>
	<path class="st0" d="M37.8,20.7c-0.5,0.6-1.4,1.1-2.4,1.1c-1.4,0-2.2-0.7-2.2-2.2v-4.8h1.1v4.5c0,1.2,0.6,1.5,1.5,1.5
		c0.8,0,1.6-0.5,2-1v-5h1.1v6.8h-1.1C37.8,21.6,37.8,20.7,37.8,20.7z"/>
	<path class="st0" d="M41.2,20.2v-4.4H40v-0.9h1.1V13h1.1v1.9h1.4v0.9h-1.4V20c0,0.5,0.2,0.9,0.7,0.9c0.3,0,0.6-0.1,0.7-0.3l0.3,0.8
		c-0.3,0.3-0.6,0.4-1.3,0.4C41.7,21.8,41.2,21.2,41.2,20.2z"/>
	<path class="st0" d="M45.3,20.2v-4.4h-1.1v-0.9h1.1V13h1.1v1.9h1.4v0.9h-1.4V20c0,0.5,0.2,0.9,0.7,0.9c0.3,0,0.6-0.1,0.7-0.3
		l0.3,0.8c-0.3,0.3-0.6,0.4-1.3,0.4C45.8,21.8,45.3,21.2,45.3,20.2z"/>
	<path class="st0" d="M48.8,18.3c0-2,1.3-3.6,3.4-3.6c2.1,0,3.4,1.6,3.4,3.6s-1.3,3.6-3.4,3.6C50.1,21.8,48.8,20.2,48.8,18.3z
		 M54.4,18.3c0-1.4-0.8-2.6-2.2-2.6s-2.3,1.2-2.3,2.6s0.8,2.6,2.3,2.6C53.6,20.9,54.4,19.6,54.4,18.3z"/>
	<path class="st0" d="M61.9,17.2c0-1.2-0.6-1.6-1.5-1.6c-0.8,0-1.6,0.5-2,1.1v5h-1.1v-6.8h1.1v1c0.5-0.6,1.4-1.2,2.4-1.2
		c1.4,0,2.2,0.7,2.2,2.2v4.8h-1.1C61.9,21.7,61.9,17.2,61.9,17.2z"/>
</g>
<path class="st0" d="M82.7,1.6c1.7,0,3.1,1.4,3.1,3.1v24.5c0,1.7-1.4,3.1-3.1,3.1H4.6c-1.7,0-3.1-1.4-3.1-3.1V4.8
	c0-1.7,1.4-3.1,3.1-3.1h78.1 M82.7,0.6H4.6c-2.3,0-4.1,1.9-4.1,4.1v24.5c0,2.3,1.9,4.1,4.1,4.1h78.1c2.3,0,4.1-1.9,4.1-4.1V4.8
	C86.8,2.5,85,0.6,82.7,0.6L82.7,0.6z"/>
</svg>
