<?xml version="1.0" encoding="utf-8"?>
<!-- Generator: Adobe Illustrator 25.2.3, SVG Export Plug-In . SVG Version: 6.00 Build 0)  -->
<svg version="1.1" id="Layer_1" xmlns="http://www.w3.org/2000/svg" xmlns:xlink="http://www.w3.org/1999/xlink" x="0px" y="0px"
	 viewBox="0 0 87.3 34.1" style="enable-background:new 0 0 87.3 34.1;" xml:space="preserve">
<style type="text/css">
	.st0{fill:#A0AEC0;}
</style>
<g>
	<path class="st0" d="M28.5,17.4h-2.9v3.2h2.9c1.1,0,1.7-0.6,1.7-1.6C30.2,18.2,29.6,17.4,28.5,17.4z"/>
	<path class="st0" d="M52.2,15.7c-1.4,0-2.3,1.2-2.3,2.6s0.8,2.6,2.3,2.6s2.2-1.2,2.2-2.6C54.5,16.9,53.7,15.7,52.2,15.7z"/>
	<path class="st0" d="M30,14.9c0-0.8-0.6-1.5-1.6-1.5h-2.8v3h2.8C29.4,16.4,30,15.7,30,14.9z"/>
	<path class="st0" d="M0.5,0.7v32.8h86.4V0.7H0.5z M28.7,21.7h-4.3v-9.4h4.2c1.6,0,2.6,1,2.6,2.4c0,1.2-0.8,2-1.6,2.2
		c1,0.2,1.8,1.2,1.8,2.3C31.4,20.6,30.4,21.7,28.7,21.7z M38.9,21.7h-1.1v-1c-0.5,0.6-1.4,1.1-2.4,1.1c-1.4,0-2.2-0.7-2.2-2.2v-4.8
		h1.1v4.5c0,1.2,0.6,1.5,1.5,1.5c0.8,0,1.6-0.5,2-1v-5h1.1C38.9,14.8,38.9,21.7,38.9,21.7z M42.7,21.8c-1,0-1.5-0.6-1.5-1.6v-4.4
		h-1.1v-0.9h1.1V13h1.1v1.9h1.4v0.9h-1.4V20c0,0.5,0.2,0.9,0.7,0.9c0.3,0,0.6-0.1,0.7-0.3l0.3,0.8C43.7,21.7,43.3,21.8,42.7,21.8z
		 M46.8,21.8c-1,0-1.5-0.6-1.5-1.6v-4.4h-1.1v-0.9h1.1V13h1.1v1.9h1.4v0.9h-1.4V20c0,0.5,0.2,0.9,0.7,0.9c0.3,0,0.6-0.1,0.7-0.3
		l0.3,0.8C47.8,21.7,47.4,21.8,46.8,21.8z M52.2,21.8c-2.1,0-3.4-1.6-3.4-3.6s1.3-3.6,3.4-3.6c2.1,0,3.4,1.6,3.4,3.6
		S54.3,21.8,52.2,21.8z M62.9,21.7h-1.1v-4.4c0-1.2-0.6-1.6-1.5-1.6c-0.8,0-1.6,0.5-2,1.1v5h-1.1V15h1.1v1c0.5-0.6,1.4-1.2,2.4-1.2
		c1.4,0,2.2,0.7,2.2,2.2C62.9,17,62.9,21.7,62.9,21.7z"/>
</g>
</svg>
