<svg width="20" height="20" viewBox="0 0 20 20" fill="none" xmlns="http://www.w3.org/2000/svg">
<path fill-rule="evenodd" clip-rule="evenodd" d="M10 20C15.5228 20 20 15.5228 20 10C20 4.47715 15.5228 0 10 0C4.47715 0 0 4.47715 0 10C0 15.5228 4.47715 20 10 20ZM5.87304 11.1641C7.20234 8.44278 8.53181 5.72112 9.86127 3.00038L11.2552 5.70759C10.2064 7.76244 9.1575 9.81685 8.10878 11.8708L6.5119 14.9985H4L5.87304 11.1641ZM10.0464 12.8339L12.4655 7.96165C12.9933 9.01292 13.5213 10.0642 14.0494 11.1156C14.6996 12.4101 15.3499 13.7048 16 15H13.3025L12.8393 13.9666L12.3722 12.9245H10.0464H9.99976L10.0464 12.8339Z" fill="#A7AAAD"/>
</svg>
